<svg xmlns="http://www.w3.org/2000/svg" width="12" height="12" viewBox="0 0 12 12">
    <path d="M13.667 3H4.333A1.337 1.337 0 0 0 3 4.333v9.333A1.337 1.337 0 0 0 4.333 15h9.333A1.337 1.337 0 0 0 15 13.667V4.333A1.337 1.337 0 0 0 13.667 3M7.333 8.667a1.025 1.025 0 0 1-1 1h-.666V11h-1V7h1.666a1.025 1.025 0 0 1 1 1v.667M10.667 10a1.025 1.025 0 0 1-1 1H8V7h1.667a1.025 1.025 0 0 1 1 1v2m2.667-2h-1v.667h1v1h-1V11h-1V7h2v1M9 8h.667v2H9V8M5.667 8h.667v.667h-.667z" transform="translate(-3 -3)" style="fill:#323232"/>
</svg>
