<svg xmlns="http://www.w3.org/2000/svg" width="12" height="12" viewBox="0 0 12 12">
    <path d="M7.533 9.933H9.2a2.515 2.515 0 0 0 1.867-.547 1.927 1.927 0 0 0 .6-1.567 2.012 2.012 0 0 0-.6-1.567A2.358 2.358 0 0 0 9.2 5.667H6.333v6.667h1.2v-2.4M13.667 3A1.333 1.333 0 0 1 15 4.333v9.333A1.333 1.333 0 0 1 13.667 15H4.333A1.333 1.333 0 0 1 3 13.667V4.333A1.333 1.333 0 0 1 4.333 3h9.333M7.533 9V6.6h1.534a1.344 1.344 0 0 1 1 .4 1.121 1.121 0 0 1 .333.827 1.093 1.093 0 0 1-.333.84 1.193 1.193 0 0 1-.92.333z" transform="translate(-3 -3)" style="fill:#323232"/>
</svg>
