<svg xmlns="http://www.w3.org/2000/svg" width="72" height="72" viewBox="0 0 72 72">
    <defs>
        <clipPath id="9vhru1u73a">
            <path data-name="사각형 293287" transform="translate(9 4)" style="fill:none" d="M0 0h72v72H0z"/>
        </clipPath>
    </defs>
    <g data-name="그룹 234704">
        <g data-name="마스크 그룹 233666" style="clip-path:url(#9vhru1u73a)" transform="translate(-9 -4)">
            <g data-name="그룹 234360">
                <path data-name="사각형 292888" transform="translate(40.002 17)" style="fill:#fff" d="M0 0h11v34H0z"/>
                <g data-name="그룹 234357">
                    <path data-name="합치기 11" d="M21277.588-3941.9a4.9 4.9 0 0 1-1.59-3.655v-36.2a4.9 4.9 0 0 1 1.59-3.655 5.353 5.353 0 0 1 3.826-1.514h10.414a12.594 12.594 0 0 1 3.9-4.656 7.948 7.948 0 0 1 4.635-1.424 7.948 7.948 0 0 1 4.635 1.424 12.539 12.539 0 0 1 3.9 4.656h10.414a5.334 5.334 0 0 1 3.826 1.514 4.88 4.88 0 0 1 1.59 3.655v36.119a4.871 4.871 0 0 1-1.59 3.655 5.339 5.339 0 0 1-3.826 1.52h-10.414c.068.064-17.014.027-17.062 0h-3.367l-7.047.075a5.376 5.376 0 0 1-3.834-1.514zm21.316-45.126a1.853 1.853 0 0 0-.572 1.392 1.845 1.845 0 0 0 .572 1.391 2.033 2.033 0 0 0 1.455.551 2.033 2.033 0 0 0 1.455-.551 1.849 1.849 0 0 0 .578-1.391 1.858 1.858 0 0 0-.578-1.392 2.029 2.029 0 0 0-1.455-.546 2.029 2.029 0 0 0-1.459.55z" transform="translate(-21254.998 4007)" style="fill:#e4e7ed"/>
                </g>
                <path data-name="패스 96656" d="M10.827 43.307h5.684l16.24-16.1-5.819-5.819-16.1 16.1zm23.819-18 2.842-2.977a1.308 1.308 0 0 0 0-1.895L33.7 16.646a1.308 1.308 0 0 0-1.895 0l-2.977 2.842z" transform="translate(21.002 14)" style="fill:#fff"/>
            </g>
        </g>
    </g>
</svg>
