<svg xmlns="http://www.w3.org/2000/svg" width="72" height="72" viewBox="0 0 72 72">
    <defs>
        <clipPath id="dvs0jim74a">
            <path data-name="사각형 292874" transform="translate(9 4)" style="fill:none" d="M0 0h72v72H0z"/>
        </clipPath>
    </defs>
    <g data-name="마스크 그룹 103" transform="translate(-9 -4)" style="clip-path:url(#dvs0jim74a)">
        <g data-name="그룹 234360">
            <path data-name="사각형 292891" transform="translate(28 24)" style="fill:#fff" d="M0 0h33v34H0z"/>
            <path data-name="사각형 292888" transform="translate(40 12)" style="fill:#fff" d="M0 0h11v34H0z"/>
            <g data-name="그룹 234357">
                <path data-name="패스 96563" d="M5.778 57A5.613 5.613 0 0 1 1.7 55.327 5.463 5.463 0 0 1 0 51.3V11.4a5.463 5.463 0 0 1 1.7-4.028A5.613 5.613 0 0 1 5.778 5.7h11.116a13.754 13.754 0 0 1 4.16-5.132 8.586 8.586 0 0 1 9.892 0 13.754 13.754 0 0 1 4.16 5.132h11.116A5.613 5.613 0 0 1 50.3 7.372 5.463 5.463 0 0 1 52 11.4v29.925c0 .807-10.486 15.294-11.3 15.294zm0-28.287zM14.444 45.6h7.222a2.808 2.808 0 0 0 2.057-.821 2.891 2.891 0 0 0 0-4.058 2.808 2.808 0 0 0-2.057-.821h-7.222a2.808 2.808 0 0 0-2.057.821 2.891 2.891 0 0 0 0 4.058 2.808 2.808 0 0 0 2.057.821m0-11.4h14.445a2.808 2.808 0 0 0 2.057-.821 2.891 2.891 0 0 0 0-4.058 2.808 2.808 0 0 0-2.057-.821H14.444a2.808 2.808 0 0 0-2.057.821 2.891 2.891 0 0 0 0 4.058 2.808 2.808 0 0 0 2.057.821m0-11.4h23.112a2.808 2.808 0 0 0 2.057-.821 2.891 2.891 0 0 0 0-4.058 2.808 2.808 0 0 0-2.057-.821H14.444a2.808 2.808 0 0 0-2.057.821 2.891 2.891 0 0 0 0 4.058 2.808 2.808 0 0 0 2.057.821M26 9.262a2.13 2.13 0 0 0 1.554-.6 2.071 2.071 0 0 0 .612-1.533 2.071 2.071 0 0 0-.612-1.533 2.3 2.3 0 0 0-3.108 0 2.071 2.071 0 0 0-.612 1.533 2.071 2.071 0 0 0 .612 1.533 2.13 2.13 0 0 0 1.554.6" transform="translate(19 10)" style="fill:#e4e7ed"/>
                <g data-name="그룹 234358">
                    <path data-name="패스 96569" d="M42.392 62.232a13.976 13.976 0 0 1-14-14 13.976 13.976 0 0 1 14-14 13.976 13.976 0 0 1 14 14 13.976 13.976 0 0 1-14 14" transform="translate(20.609 10.768)" style="fill:#fff"/>
                    <path data-name="패스 96570" d="M42.392 62.232a13.976 13.976 0 0 1-14-14 13.976 13.976 0 0 1 14-14 13.976 13.976 0 0 1 14 14 13.976 13.976 0 0 1-14 14m-1.4-12.6v5.6a1.4 1.4 0 0 0 2.8 0v-5.6h5.6a1.4 1.4 0 0 0 0-2.8h-5.6v-5.6a1.4 1.4 0 0 0-2.8 0v5.6h-5.6a1.4 1.4 0 0 0 0 2.8z" transform="translate(20.609 10.768)" style="fill:#dbdee5"/>
                </g>
            </g>
        </g>
    </g>
</svg>
